<?xml version="1.0" standalone="no"?>
<!DOCTYPE svg PUBLIC "-//W3C//DTD SVG 20010904//EN"
 "http://www.w3.org/TR/2001/REC-SVG-20010904/DTD/svg10.dtd">
<svg version="1.0" xmlns="http://www.w3.org/2000/svg"
 width="1280.000000pt" height="640.000000pt" viewBox="0 0 1280.000000 640.000000"
 preserveAspectRatio="xMidYMid meet">
<g transform="translate(0.000000,640.000000) scale(0.100000,-0.100000)"
fill="#000000" stroke="none">
<path d="M8737 3704 c-4 -4 -7 -59 -7 -123 0 -64 -3 -127 -7 -139 l-6 -24
-3866 3 c-3028 2 -3872 -1 -3896 -10 -55 -23 -97 -63 -122 -119 -21 -45 -25
-64 -20 -110 9 -90 77 -168 166 -191 22 -6 1534 -11 3884 -12 2650 -2 3851 -6
3855 -14 4 -5 9 -70 10 -142 l4 -133 54 0 c42 0 54 3 54 16 0 22 44 95 77 126
38 36 106 65 176 73 64 8 87 -2 87 -41 0 -20 5 -24 30 -24 17 0 53 11 80 25
46 23 49 27 52 67 l3 43 55 0 55 0 5 -50 c5 -45 7 -50 30 -50 23 0 25 5 30 50
l5 50 40 0 40 0 3 -107 c3 -122 1 -120 80 -87 36 15 52 28 54 43 4 30 34 31
63 2 29 -29 75 -35 75 -11 0 12 13 15 60 15 45 0 62 -4 66 -15 8 -19 64 -20
64 -2 0 13 39 37 59 37 5 0 11 -9 14 -20 4 -16 14 -20 50 -20 41 0 47 3 71 40
l26 40 783 0 c430 0 787 -4 792 -8 6 -4 21 -22 34 -39 19 -29 28 -33 65 -33
33 0 47 5 58 21 12 18 17 20 35 10 28 -14 277 -15 305 0 14 8 23 8 31 0 6 -6
37 -11 70 -11 32 0 68 5 79 11 14 8 23 8 31 0 6 -6 21 -11 34 -11 13 0 26 -7
29 -15 8 -20 60 -20 68 0 3 8 14 15 24 15 32 0 39 19 56 140 20 144 20 295 1
436 -20 139 -20 141 -55 149 -15 3 -31 13 -34 21 -7 19 -43 18 -54 -2 -13 -23
-73 -33 -126 -21 -32 7 -60 7 -92 0 -29 -7 -58 -7 -78 -2 -42 12 -233 11 -276
-1 -30 -9 -37 -8 -49 10 -10 15 -25 20 -56 20 -38 0 -45 -4 -69 -40 l-26 -40
-783 0 c-430 0 -787 4 -792 8 -6 4 -21 22 -34 40 -19 28 -28 32 -65 32 -33 0
-47 -5 -58 -22 -14 -20 -15 -21 -41 -3 -15 9 -27 21 -27 26 0 15 -58 10 -64
-6 -4 -11 -21 -15 -66 -15 -47 0 -60 3 -60 15 0 10 -10 15 -30 15 -16 0 -30
-4 -30 -10 0 -5 -13 -16 -29 -24 -30 -16 -51 -7 -51 21 0 8 -20 22 -45 33 -83
35 -79 39 -85 -85 l-5 -110 -40 0 -40 0 -5 50 c-5 45 -7 50 -30 50 -23 0 -25
-5 -30 -50 l-5 -50 -55 0 -55 0 -3 43 c-3 39 -8 46 -50 73 -26 17 -60 29 -78
29 -30 0 -33 -3 -36 -32 l-3 -33 -70 1 c-117 1 -184 42 -250 156 -29 48 -35
53 -71 56 -22 2 -43 0 -47 -4z"/>
</g>
</svg>
